<svg version="1.1" id="Layer_1" xmlns="http://www.w3.org/2000/svg" xmlns:xlink="http://www.w3.org/1999/xlink" x="0" y="0" viewBox="0 0 176 49" xml:space="preserve"><style>.st1{fill:#161839}.st1,.st2{clip-path:url(#SVGID_2_)}</style><path d="M61.68 3.5h9.68v16.95h16.89V3.5h9.74v43.35h-9.74V29.78H71.36v17.07h-9.68zm40.93 9.33V3.5h34.19v9.33h-12.2v34.02h-9.74V12.83z" fill="#161839"/><defs><path id="SVGID_1_" d="M56.16-.2h119.57v52.69H56.16z"/></defs><clipPath id="SVGID_2_"><use xlink:href="#SVGID_1_" overflow="visible"/></clipPath><path class="st1" d="M-823.73 516.01h9.67v16.95h16.9v-16.95h9.73v43.35h-9.73v-17.07h-16.9v17.07h-9.67zm40.92 9.32v-9.32h34.2v9.32h-12.21v34.03h-9.73v-34.03z"/><g class="st2"><defs><path id="SVGID_3_" d="M-829.26 512.31h119.57V565h-119.57z"/></defs><clipPath id="SVGID_4_"><use xlink:href="#SVGID_3_" overflow="visible"/></clipPath><path d="M-719.72 545.87c0-2.58-1.76-5.1-5.69-5.1h-9.03v10.21h8.86c4.1-.01 5.86-2.71 5.86-5.11m-14.72-21.53v8.51h7.8c3.58 0 5.04-2.29 5.04-4.34 0-2.17-1.64-4.17-4.64-4.17h-8.2zm24.75 22.34c0 6.98-5.28 12.67-13.85 12.67H-744V516h19.47c8.45 0 12.55 5.46 12.55 10.73 0 3.87-2.4 7.51-5.98 8.85 5.63 1.37 8.27 6 8.27 11.1" clip-path="url(#SVGID_4_)" fill="#161839"/></g><g class="st2"><defs><path id="SVGID_5_" d="M-829.26 512.31h119.57V565h-119.57z"/></defs><clipPath id="SVGID_6_"><use xlink:href="#SVGID_5_" overflow="visible"/></clipPath><g clip-path="url(#SVGID_6_)"><defs><path id="SVGID_7_" d="M-866.11 549.04c-.28 3.98-1.74 11.53-8.42 18.25-2.33 2.33-5.3 4.52-9.01 6.38h9.51a36.173 36.173 0 0020.83-10.3 36.35 36.35 0 008.21-12.63c-2.03-6.4-4.87-10.76-7.88-13.78-3.45-3.46-7.23-5.23-10.35-6.11 2.6 5.95 1.64 13.1-2.89 18.19"/></defs><clipPath id="SVGID_8_"><use xlink:href="#SVGID_7_" overflow="visible"/></clipPath><g clip-path="url(#SVGID_8_)"><defs><path id="SVGID_9_" d="M-883.53 530.84h38.54v42.83h-38.54z"/></defs><clipPath id="SVGID_10_"><use xlink:href="#SVGID_9_" overflow="visible"/></clipPath><radialGradient id="SVGID_11_" cx="-42.445" cy="1058.159" r="1" gradientTransform="matrix(20.4397 0 0 22.5912 3.293 -23352.736)" gradientUnits="userSpaceOnUse"><stop offset="0" stop-color="#f2e1a4"/><stop offset=".161" stop-color="#ecd38c"/><stop offset=".497" stop-color="#deb050"/><stop offset=".713" stop-color="#d69444"/><stop offset="1" stop-color="#c96932"/></radialGradient><path clip-path="url(#SVGID_10_)" fill="url(#SVGID_11_)" d="M-883.53 530.84h38.54v42.82h-38.54z"/></g></g></g><g class="st2"><defs><path id="SVGID_12_" d="M-829.26 512.31h119.57V565h-119.57z"/></defs><clipPath id="SVGID_13_"><use xlink:href="#SVGID_12_" overflow="visible"/></clipPath><g clip-path="url(#SVGID_13_)"><defs><path id="SVGID_14_" d="M-879.62 511.71c-3.47 3.46-5.23 7.23-6.11 10.36 5.97-2.62 13.11-1.66 18.21 2.88 3.98.28 11.52 1.74 18.23 8.42 2.34 2.34 4.53 5.32 6.4 9.04 1.41-10.78-2.02-22.08-10.31-30.37a36.247 36.247 0 00-12.64-8.21c-6.4 2.03-10.77 4.87-13.78 7.88"/></defs><clipPath id="SVGID_15_"><use xlink:href="#SVGID_14_" overflow="visible"/></clipPath><g clip-path="url(#SVGID_15_)"><defs><path id="SVGID_16_" d="M-885.73 503.83h44.25v38.58h-44.25z"/></defs><clipPath id="SVGID_17_"><use xlink:href="#SVGID_16_" overflow="visible"/></clipPath><radialGradient id="SVGID_18_" cx="-42.396" cy="1055.784" r="1" gradientTransform="translate(3.376 -21081.283) scale(20.4629)" gradientUnits="userSpaceOnUse"><stop offset="0" stop-color="#bedbf3"/><stop offset=".315" stop-color="#8bb7e1"/><stop offset=".497" stop-color="#6ca1d6"/><stop offset="1" stop-color="#3d6192"/></radialGradient><path clip-path="url(#SVGID_17_)" fill="url(#SVGID_18_)" d="M-885.73 503.83h44.25v38.58h-44.25z"/></g></g></g><g class="st2"><defs><path id="SVGID_19_" d="M-829.26 512.31h119.57V565h-119.57z"/></defs><clipPath id="SVGID_20_"><use xlink:href="#SVGID_19_" overflow="visible"/></clipPath><g clip-path="url(#SVGID_20_)"><defs><path id="SVGID_21_" d="M-904.53 512.04a36.04 36.04 0 00-8.2 12.63c2.02 6.4 4.86 10.77 7.88 13.78 3.45 3.47 7.23 5.23 10.35 6.12-2.61-5.96-1.66-13.1 2.88-18.2.28-3.98 1.74-11.53 8.42-18.25 2.33-2.34 5.32-4.53 9.04-6.39-1.56-.2-3.14-.31-4.71-.31-9.29 0-18.57 3.54-25.66 10.62"/></defs><clipPath id="SVGID_22_"><use xlink:href="#SVGID_21_" overflow="visible"/></clipPath><g clip-path="url(#SVGID_22_)"><defs><path id="SVGID_23_" d="M-912.74 501.42h38.57v43.15h-38.57z"/></defs><clipPath id="SVGID_24_"><use xlink:href="#SVGID_23_" overflow="visible"/></clipPath><radialGradient id="SVGID_25_" cx="-42.4" cy="1058.456" r="1" gradientTransform="matrix(20.4606 0 0 22.8884 -25.911 -23703.408)" gradientUnits="userSpaceOnUse"><stop offset="0" stop-color="#f2e1a4"/><stop offset=".161" stop-color="#ecd38c"/><stop offset=".497" stop-color="#deb050"/><stop offset=".713" stop-color="#d69444"/><stop offset="1" stop-color="#c96932"/></radialGradient><path clip-path="url(#SVGID_24_)" fill="url(#SVGID_25_)" d="M-912.74 501.42h38.57v43.15h-38.57z"/></g></g></g><g class="st2"><defs><path id="SVGID_26_" d="M-829.26 512.31h119.57V565h-119.57z"/></defs><clipPath id="SVGID_27_"><use xlink:href="#SVGID_26_" overflow="visible"/></clipPath><g clip-path="url(#SVGID_27_)"><defs><path id="SVGID_28_" d="M-915.15 537.55v.35c.04 9.22 3.58 18.43 10.61 25.47 3.71 3.71 8.03 6.44 12.63 8.21 6.41-2.03 10.77-4.86 13.78-7.87 3.47-3.46 5.22-7.24 6.11-10.36-5.97 2.62-13.11 1.66-18.21-2.88-3.98-.28-11.52-1.74-18.23-8.42-2.34-2.34-4.53-5.33-6.4-9.04-.18 1.5-.28 3.02-.29 4.54"/></defs><clipPath id="SVGID_29_"><use xlink:href="#SVGID_28_" overflow="visible"/></clipPath><g clip-path="url(#SVGID_29_)"><defs><path id="SVGID_30_" d="M-915.15 533h43.14v38.58h-43.14z"/></defs><clipPath id="SVGID_31_"><use xlink:href="#SVGID_30_" overflow="visible"/></clipPath><radialGradient id="SVGID_32_" cx="-42.399" cy="1055.782" r="1" gradientTransform="translate(-26.038 -21050.615) scale(20.4615)" gradientUnits="userSpaceOnUse"><stop offset="0" stop-color="#bedbf3"/><stop offset=".315" stop-color="#8bb7e1"/><stop offset=".497" stop-color="#6ca1d6"/><stop offset="1" stop-color="#3d6192"/></radialGradient><path clip-path="url(#SVGID_31_)" fill="url(#SVGID_32_)" d="M-915.15 533h43.14v38.57h-43.14z"/></g></g></g><g class="st2"><defs><path id="SVGID_33_" d="M-885.55 513.01h50.87v48.48h-50.87z"/></defs><clipPath id="SVGID_34_"><use xlink:href="#SVGID_33_" overflow="visible"/></clipPath><path d="M-754.39 542.83c0-1.73-1.18-3.42-3.82-3.42h-6.06v6.85h5.95c2.75 0 3.93-1.81 3.93-3.43m-9.88-14.45v5.71h5.24c2.4 0 3.39-1.53 3.39-2.91 0-1.46-1.1-2.8-3.11-2.8h-5.52zm16.61 15c0 4.69-3.54 8.5-9.29 8.5h-13.74V522.8h13.07c5.67 0 8.42 3.66 8.42 7.2 0 2.6-1.61 5.04-4.02 5.94 3.79.91 5.56 4.02 5.56 7.44" clip-path="url(#SVGID_34_)" fill="#161839"/></g><g class="st2"><defs><path id="SVGID_35_" d="M-852.63 544.96c-.18 2.67-1.17 7.73-5.65 12.25-1.56 1.57-3.56 3.03-6.04 4.28h6.38c5.11-.68 10.04-2.99 13.98-6.91 2.49-2.49 4.32-5.39 5.51-8.47-1.36-4.3-3.27-7.22-5.29-9.25-2.32-2.32-4.85-3.51-6.95-4.1 1.74 3.99 1.1 8.79-1.94 12.2"/></defs><clipPath id="SVGID_36_"><use xlink:href="#SVGID_35_" overflow="visible"/></clipPath><radialGradient id="SVGID_37_" cx="-63.736" cy="1046.966" r="1" gradientTransform="matrix(13.7173 0 0 15.1612 22.885 -15326.081)" gradientUnits="userSpaceOnUse"><stop offset="0" stop-color="#f2e1a4"/><stop offset=".161" stop-color="#ecd38c"/><stop offset=".497" stop-color="#deb050"/><stop offset=".713" stop-color="#d69444"/><stop offset="1" stop-color="#c96932"/></radialGradient><path clip-path="url(#SVGID_36_)" fill="url(#SVGID_37_)" d="M-864.33 532.75h25.86v28.74h-25.86z"/></g><g class="st2"><defs><path id="SVGID_38_" d="M-861.7 519.91a15.76 15.76 0 00-4.1 6.95 11.46 11.46 0 0112.22 1.93c2.67.19 7.73 1.17 12.24 5.65 1.57 1.57 3.04 3.57 4.29 6.07.94-7.24-1.36-14.82-6.92-20.38a24.318 24.318 0 00-8.48-5.51c-4.3 1.37-7.23 3.27-9.25 5.29"/></defs><clipPath id="SVGID_39_"><use xlink:href="#SVGID_38_" overflow="visible"/></clipPath><radialGradient id="SVGID_40_" cx="-63.662" cy="1043.426" r="1" gradientTransform="translate(22.94 -13801.683) scale(13.7329)" gradientUnits="userSpaceOnUse"><stop offset="0" stop-color="#bedbf3"/><stop offset=".315" stop-color="#8bb7e1"/><stop offset=".497" stop-color="#6ca1d6"/><stop offset="1" stop-color="#3d6192"/></radialGradient><path clip-path="url(#SVGID_39_)" fill="url(#SVGID_40_)" d="M-865.8 514.63h29.69v25.89h-29.69z"/></g><g class="st2"><defs><path id="SVGID_41_" d="M-878.42 520.14a24.318 24.318 0 00-5.51 8.48c1.36 4.3 3.27 7.22 5.29 9.25 2.32 2.33 4.86 3.51 6.95 4.1-1.76-4-1.11-8.79 1.93-12.21.19-2.67 1.16-7.74 5.65-12.25 1.57-1.57 3.57-3.04 6.07-4.29-1.05-.14-2.1-.21-3.16-.21-6.23 0-12.46 2.37-17.22 7.13"/></defs><clipPath id="SVGID_42_"><use xlink:href="#SVGID_41_" overflow="visible"/></clipPath><radialGradient id="SVGID_43_" cx="-63.669" cy="1047.408" r="1" gradientTransform="matrix(13.7314 0 0 15.3607 3.285 -15561.42)" gradientUnits="userSpaceOnUse"><stop offset="0" stop-color="#f2e1a4"/><stop offset=".161" stop-color="#ecd38c"/><stop offset=".497" stop-color="#deb050"/><stop offset=".713" stop-color="#d69444"/><stop offset="1" stop-color="#c96932"/></radialGradient><path clip-path="url(#SVGID_42_)" fill="url(#SVGID_43_)" d="M-883.93 513.01h25.88v28.96h-25.88z"/></g><g class="st2"><defs><path id="SVGID_44_" d="M-885.55 537.25v.24c.03 6.19 2.4 12.37 7.12 17.09 2.49 2.49 5.39 4.32 8.48 5.51 4.3-1.36 7.22-3.27 9.25-5.28 2.33-2.32 3.51-4.86 4.1-6.95a11.46 11.46 0 01-12.22-1.93c-2.67-.19-7.73-1.17-12.24-5.65-1.57-1.57-3.04-3.58-4.29-6.07-.12 1-.19 2.02-.2 3.04"/></defs><clipPath id="SVGID_45_"><use xlink:href="#SVGID_44_" overflow="visible"/></clipPath><radialGradient id="SVGID_46_" cx="-63.667" cy="1043.424" r="1" gradientTransform="translate(3.2 -13781.102) scale(13.732)" gradientUnits="userSpaceOnUse"><stop offset="0" stop-color="#bedbf3"/><stop offset=".315" stop-color="#8bb7e1"/><stop offset=".497" stop-color="#6ca1d6"/><stop offset="1" stop-color="#3d6192"/></radialGradient><path clip-path="url(#SVGID_45_)" fill="url(#SVGID_46_)" d="M-885.55 534.2h28.96v25.89h-28.96z"/></g><path class="st1" d="M165.7 33.36c0-2.58-1.76-5.1-5.69-5.1h-9.03v10.21h8.86c4.1-.01 5.86-2.71 5.86-5.11m-14.73-21.53v8.51h7.8c3.58 0 5.04-2.29 5.04-4.34 0-2.17-1.64-4.17-4.63-4.17h-8.21zm24.76 22.35c0 6.98-5.28 12.67-13.85 12.67h-20.47V3.5h19.47c8.44 0 12.55 5.46 12.55 10.74 0 3.87-2.4 7.51-5.98 8.85 5.64 1.35 8.28 5.99 8.28 11.09"/><defs><path id="SVGID_47_" d="M56.16-.2h119.57v52.69H56.16z"/></defs><clipPath id="SVGID_48_"><use xlink:href="#SVGID_47_" overflow="visible"/></clipPath><g clip-path="url(#SVGID_48_)"><defs><path id="SVGID_49_" d="M19.31 36.53c-.28 3.98-1.74 11.53-8.42 18.25-2.33 2.33-5.3 4.51-9.01 6.38h9.51a36.173 36.173 0 0020.83-10.3 36.35 36.35 0 008.21-12.63c-2.02-6.4-4.87-10.76-7.88-13.78-3.45-3.46-7.23-5.23-10.35-6.11 2.6 5.96 1.64 13.1-2.89 18.19"/></defs><clipPath id="SVGID_50_"><use xlink:href="#SVGID_49_" overflow="visible"/></clipPath><g clip-path="url(#SVGID_50_)"><defs><path id="SVGID_51_" d="M1.88 18.33h38.54v42.83H1.88z"/></defs><clipPath id="SVGID_52_"><use xlink:href="#SVGID_51_" overflow="visible"/></clipPath><radialGradient id="SVGID_53_" cx=".874" cy="1035.473" r="1" gradientTransform="matrix(20.4397 0 0 22.5912 3.293 -23352.736)" gradientUnits="userSpaceOnUse"><stop offset="0" stop-color="#f2e1a4"/><stop offset=".161" stop-color="#ecd38c"/><stop offset=".497" stop-color="#deb050"/><stop offset=".713" stop-color="#d69444"/><stop offset="1" stop-color="#c96932"/></radialGradient><path clip-path="url(#SVGID_52_)" fill="url(#SVGID_53_)" d="M1.88 18.33h38.54v42.82H1.88z"/></g></g><defs><path id="SVGID_54_" d="M56.16-.2h119.57v52.69H56.16z"/></defs><clipPath id="SVGID_55_"><use xlink:href="#SVGID_54_" overflow="visible"/></clipPath><g clip-path="url(#SVGID_55_)"><defs><path id="SVGID_56_" d="M5.8-.8A23.716 23.716 0 00-.32 9.56c5.97-2.62 13.11-1.66 18.21 2.88 3.98.28 11.52 1.74 18.23 8.42 2.34 2.34 4.53 5.33 6.4 9.04C43.93 19.12 40.5 7.82 32.21-.46a36.247 36.247 0 00-12.64-8.21C13.18-6.65 8.81-3.81 5.8-.8"/></defs><clipPath id="SVGID_57_"><use xlink:href="#SVGID_56_" overflow="visible"/></clipPath><g clip-path="url(#SVGID_57_)"><defs><path id="SVGID_58_" d="M-.32-8.67h44.25v38.58H-.32z"/></defs><clipPath id="SVGID_59_"><use xlink:href="#SVGID_58_" overflow="visible"/></clipPath><radialGradient id="SVGID_60_" cx=".874" cy="1030.738" r="1" gradientTransform="translate(3.376 -21081.283) scale(20.4629)" gradientUnits="userSpaceOnUse"><stop offset="0" stop-color="#bedbf3"/><stop offset=".315" stop-color="#8bb7e1"/><stop offset=".497" stop-color="#6ca1d6"/><stop offset="1" stop-color="#3d6192"/></radialGradient><path clip-path="url(#SVGID_59_)" fill="url(#SVGID_60_)" d="M-.32-8.67h44.25v38.58H-.32z"/></g></g><defs><path id="SVGID_61_" d="M56.16-.2h119.57v52.69H56.16z"/></defs><clipPath id="SVGID_62_"><use xlink:href="#SVGID_61_" overflow="visible"/></clipPath><g clip-path="url(#SVGID_62_)"><defs><path id="SVGID_63_" d="M-19.11-.46a36.04 36.04 0 00-8.2 12.63c2.02 6.4 4.86 10.76 7.88 13.78 3.45 3.47 7.23 5.23 10.35 6.12-2.61-5.96-1.66-13.1 2.88-18.2.27-3.99 1.73-11.53 8.41-18.26 2.33-2.34 5.32-4.53 9.04-6.39-1.56-.2-3.13-.31-4.71-.31-9.28.01-18.56 3.54-25.65 10.63"/></defs><clipPath id="SVGID_64_"><use xlink:href="#SVGID_63_" overflow="visible"/></clipPath><g clip-path="url(#SVGID_64_)"><defs><path id="SVGID_65_" d="M-27.32-11.08h38.57v43.15h-38.57z"/></defs><clipPath id="SVGID_66_"><use xlink:href="#SVGID_65_" overflow="visible"/></clipPath><radialGradient id="SVGID_67_" cx=".874" cy="1036.064" r="1" gradientTransform="matrix(20.4606 0 0 22.8884 -25.911 -23703.408)" gradientUnits="userSpaceOnUse"><stop offset="0" stop-color="#f2e1a4"/><stop offset=".161" stop-color="#ecd38c"/><stop offset=".497" stop-color="#deb050"/><stop offset=".713" stop-color="#d69444"/><stop offset="1" stop-color="#c96932"/></radialGradient><path clip-path="url(#SVGID_66_)" fill="url(#SVGID_67_)" d="M-27.32-11.08h38.57v43.15h-38.57z"/></g></g><defs><path id="SVGID_68_" d="M56.16-.2h119.57v52.69H56.16z"/></defs><clipPath id="SVGID_69_"><use xlink:href="#SVGID_68_" overflow="visible"/></clipPath><g clip-path="url(#SVGID_69_)"><defs><path id="SVGID_70_" d="M-29.73 25.04v.35c.05 9.22 3.58 18.43 10.61 25.47 3.71 3.71 8.03 6.44 12.63 8.21 6.41-2.03 10.77-4.86 13.78-7.87 3.47-3.46 5.22-7.24 6.11-10.36C7.44 43.45.3 42.49-4.8 37.95c-3.98-.28-11.52-1.74-18.23-8.42-2.34-2.34-4.53-5.33-6.4-9.04-.19 1.51-.29 3.03-.3 4.55"/></defs><clipPath id="SVGID_71_"><use xlink:href="#SVGID_70_" overflow="visible"/></clipPath><g clip-path="url(#SVGID_71_)"><defs><path id="SVGID_72_" d="M-29.73 20.49h43.14v38.58h-43.14z"/></defs><clipPath id="SVGID_73_"><use xlink:href="#SVGID_72_" overflow="visible"/></clipPath><radialGradient id="SVGID_74_" cx=".874" cy="1030.735" r="1" gradientTransform="translate(-26.038 -21050.615) scale(20.4615)" gradientUnits="userSpaceOnUse"><stop offset="0" stop-color="#bedbf3"/><stop offset=".315" stop-color="#8bb7e1"/><stop offset=".497" stop-color="#6ca1d6"/><stop offset="1" stop-color="#3d6192"/></radialGradient><path clip-path="url(#SVGID_73_)" fill="url(#SVGID_74_)" d="M-29.73 20.49h43.14v38.57h-43.14z"/></g></g><defs><path id="SVGID_75_" d="M-.13.5h50.87v48.48H-.13z"/></defs><clipPath id="SVGID_76_"><use xlink:href="#SVGID_75_" overflow="visible"/></clipPath><path d="M131.03 30.33c0-1.73-1.18-3.42-3.82-3.42h-6.06v6.85h5.94c2.76-.01 3.94-1.82 3.94-3.43m-9.88-14.45v5.71h5.24c2.4 0 3.39-1.53 3.39-2.91 0-1.46-1.1-2.8-3.11-2.8h-5.52zm16.61 15c0 4.69-3.54 8.5-9.29 8.5h-13.74V10.29h13.07c5.67 0 8.42 3.66 8.42 7.2 0 2.6-1.61 5.04-4.01 5.94 3.78.91 5.55 4.02 5.55 7.45" clip-path="url(#SVGID_76_)" fill="#161839"/><defs><path id="SVGID_77_" d="M32.79 32.46c-.19 2.67-1.17 7.74-5.65 12.25-1.56 1.57-3.56 3.03-6.04 4.28h6.38c5.11-.68 10.05-2.99 13.98-6.91 2.49-2.49 4.32-5.39 5.51-8.48-1.36-4.3-3.27-7.22-5.29-9.25a15.802 15.802 0 00-6.95-4.1c1.74 4 1.09 8.79-1.94 12.21"/></defs><clipPath id="SVGID_78_"><use xlink:href="#SVGID_77_" overflow="visible"/></clipPath><radialGradient id="SVGID_79_" cx=".812" cy="1013.162" r="1" gradientTransform="matrix(13.7173 0 0 15.1612 22.885 -15326.081)" gradientUnits="userSpaceOnUse"><stop offset="0" stop-color="#f2e1a4"/><stop offset=".161" stop-color="#ecd38c"/><stop offset=".497" stop-color="#deb050"/><stop offset=".713" stop-color="#d69444"/><stop offset="1" stop-color="#c96932"/></radialGradient><path clip-path="url(#SVGID_78_)" fill="url(#SVGID_79_)" d="M21.09 20.24h25.86v28.74H21.09z"/><defs><path id="SVGID_80_" d="M23.72 7.4a15.76 15.76 0 00-4.1 6.95 11.46 11.46 0 0112.22 1.93c2.67.19 7.73 1.17 12.24 5.65 1.57 1.57 3.04 3.57 4.29 6.07.94-7.24-1.36-14.82-6.92-20.38a24.318 24.318 0 00-8.48-5.51c-4.3 1.37-7.23 3.27-9.25 5.29"/></defs><clipPath id="SVGID_81_"><use xlink:href="#SVGID_80_" overflow="visible"/></clipPath><radialGradient id="SVGID_82_" cx=".812" cy="1006.106" r="1" gradientTransform="translate(22.94 -13801.683) scale(13.7329)" gradientUnits="userSpaceOnUse"><stop offset="0" stop-color="#bedbf3"/><stop offset=".315" stop-color="#8bb7e1"/><stop offset=".497" stop-color="#6ca1d6"/><stop offset="1" stop-color="#3d6192"/></radialGradient><path clip-path="url(#SVGID_81_)" fill="url(#SVGID_82_)" d="M19.61 2.12H49.3v25.89H19.61z"/><defs><path id="SVGID_83_" d="M7 7.63a24.318 24.318 0 00-5.51 8.48c1.36 4.3 3.27 7.22 5.29 9.25 2.32 2.33 4.86 3.51 6.95 4.1-1.76-4-1.11-8.79 1.93-12.21.19-2.67 1.16-7.74 5.65-12.25 1.57-1.57 3.57-3.04 6.07-4.29C26.33.57 25.28.5 24.22.5 17.99.5 11.76 2.87 7 7.63"/></defs><clipPath id="SVGID_84_"><use xlink:href="#SVGID_83_" overflow="visible"/></clipPath><radialGradient id="SVGID_85_" cx=".812" cy="1014.043" r="1" gradientTransform="matrix(13.7314 0 0 15.3607 3.285 -15561.42)" gradientUnits="userSpaceOnUse"><stop offset="0" stop-color="#f2e1a4"/><stop offset=".161" stop-color="#ecd38c"/><stop offset=".497" stop-color="#deb050"/><stop offset=".713" stop-color="#d69444"/><stop offset="1" stop-color="#c96932"/></radialGradient><path clip-path="url(#SVGID_84_)" fill="url(#SVGID_85_)" d="M1.49.5h25.88v28.96H1.49z"/><defs><path id="SVGID_86_" d="M-.13 24.74v.24C-.1 31.17 2.28 37.35 7 42.07c2.49 2.49 5.39 4.32 8.48 5.51 4.3-1.36 7.22-3.26 9.25-5.28 2.33-2.32 3.51-4.86 4.1-6.95a11.46 11.46 0 01-12.22-1.93c-2.67-.19-7.73-1.17-12.24-5.65C2.8 26.2 1.33 24.19.08 21.7c-.13 1-.2 2.02-.21 3.04"/></defs><clipPath id="SVGID_87_"><use xlink:href="#SVGID_86_" overflow="visible"/></clipPath><radialGradient id="SVGID_88_" cx=".812" cy="1006.101" r="1" gradientTransform="translate(3.2 -13781.102) scale(13.732)" gradientUnits="userSpaceOnUse"><stop offset="0" stop-color="#bedbf3"/><stop offset=".315" stop-color="#8bb7e1"/><stop offset=".497" stop-color="#6ca1d6"/><stop offset="1" stop-color="#3d6192"/></radialGradient><path clip-path="url(#SVGID_87_)" fill="url(#SVGID_88_)" d="M-.13 21.69h28.96v25.89H-.13z"/></svg>